<svg width="48" height="48" viewBox="0 0 48 48" fill="none" xmlns="http://www.w3.org/2000/svg">
<path d="M0 16C0 7.16344 7.16344 0 16 0H32C40.8366 0 48 7.16344 48 16V32C48 40.8366 40.8366 48 32 48H16C7.16344 48 0 40.8366 0 32V16Z" fill="#C7E8CF" fill-opacity="0.3"/>
<g clip-path="url(#clip0_4_404)">
<path d="M14 34L11.5 31.5H36.5L34 34H14ZM12.75 30.25C12.875 29.875 13.0417 29.5208 13.25 29.1875C13.4583 28.8542 13.7083 28.5417 14 28.25V19H12.75V17.125H14V16.1875H12.75V14.3125H14V13.375H12.75V11.5H21.5C22.1875 11.5 22.776 11.7448 23.2656 12.2344C23.7552 12.724 24 13.3125 24 14V14.3125H35.25V16.1875H24V16.5C24 17.1875 23.7552 17.776 23.2656 18.2656C22.776 18.7552 22.1875 19 21.5 19H19V26.625C19.2917 26.6667 19.5833 26.7292 19.875 26.8125C20.1667 26.8958 20.4375 27.0208 20.6875 27.1875C21.2292 25.8333 22.0938 24.7552 23.2812 23.9531C24.4688 23.151 25.7812 22.75 27.2188 22.75C29.0938 22.75 30.6927 23.3906 32.0156 24.6719C33.3385 25.9531 34 27.5208 34 29.375V30.25H12.75ZM23.1875 27.75H31.0625C30.7083 27 30.1875 26.3958 29.5 25.9375C28.8125 25.4792 28.0521 25.25 27.2188 25.25C26.3438 25.25 25.5417 25.4688 24.8125 25.9062C24.0833 26.3438 23.5417 26.9583 23.1875 27.75ZM19 14.3125H21.5V13.375H19V14.3125ZM19 17.125H21.5V16.1875H19V17.125ZM15.875 14.3125H17.125V13.375H15.875V14.3125ZM15.875 17.125H17.125V16.1875H15.875V17.125ZM15.875 26.9375C16.0833 26.8333 16.2865 26.7552 16.4844 26.7031C16.6823 26.651 16.8958 26.6042 17.125 26.5625V19H15.875V26.9375Z" fill="#486551"/>
</g>
<defs>
<clipPath id="clip0_4_404">
<rect width="25" height="25" fill="white" transform="translate(11.5 11.5)"/>
</clipPath>
</defs>
</svg>
