<svg width="40" height="40" viewBox="0 0 40 40" fill="none" xmlns="http://www.w3.org/2000/svg">
<path d="M0 12C0 5.37258 5.37258 0 12 0H28C34.6274 0 40 5.37258 40 12V28C40 34.6274 34.6274 40 28 40H12C5.37258 40 0 34.6274 0 28V12Z" fill="#476550"/>
<g clip-path="url(#clip0_4_232)">
<path d="M19.9948 30C18.4283 29.8 17.0285 29.4 15.7953 28.8C14.5621 28.2 13.5164 27.4167 12.6582 26.45C11.8 25.4833 11.1459 24.3625 10.6959 23.0875C10.246 21.8125 10.021 20.4 10.021 18.85C11.8541 19.0333 13.4039 19.3667 14.6704 19.85C15.937 20.3333 16.966 21.0167 17.7576 21.9C18.5491 22.7833 19.1199 23.8875 19.4699 25.2125C19.8198 26.5375 19.9948 28.1333 19.9948 30ZM19.9948 21.575C19.6115 20.9917 19.0907 20.4167 18.4325 19.85C17.7742 19.2833 17.0118 18.7667 16.1453 18.3C16.2452 17.6 16.4119 16.875 16.6452 16.125C16.8785 15.375 17.1618 14.6375 17.4951 13.9125C17.8284 13.1875 18.2075 12.4917 18.6325 11.825C19.0574 11.1583 19.5115 10.55 19.9948 10C20.478 10.55 20.9322 11.1583 21.3571 11.825C21.7821 12.4917 22.1612 13.1875 22.4945 13.9125C22.8278 14.6375 23.1111 15.375 23.3444 16.125C23.5777 16.875 23.7443 17.6 23.8443 18.3C22.9777 18.75 22.2153 19.2583 21.5571 19.825C20.8989 20.3917 20.3781 20.975 19.9948 21.575ZM21.9946 29.6C21.9613 28.4333 21.8738 27.3542 21.7321 26.3625C21.5904 25.3708 21.3696 24.4333 21.0697 23.55C21.8529 22.2 22.9319 21.1 24.3068 20.25C25.6816 19.4 27.5689 18.9333 29.9686 18.85C29.9853 21.4833 29.2812 23.7542 27.8563 25.6625C26.4315 27.5708 24.4776 28.8833 21.9946 29.6Z" fill="white"/>
</g>
<defs>
<clipPath id="clip0_4_232">
<rect width="19.9479" height="20" fill="white" transform="translate(10.021 10)"/>
</clipPath>
</defs>
</svg>
