<svg width="84" height="36" viewBox="0 0 84 36" fill="none" xmlns="http://www.w3.org/2000/svg">
<g clip-path="url(#clip0_4_283)">
<path d="M8 25V23H10V16C10 14.6167 10.4167 13.3875 11.25 12.3125C12.0833 11.2375 13.1667 10.5333 14.5 10.2V9.5C14.5 9.08333 14.6458 8.72917 14.9375 8.4375C15.2292 8.14583 15.5833 8 16 8C16.4167 8 16.7708 8.14583 17.0625 8.4375C17.3542 8.72917 17.5 9.08333 17.5 9.5V10.2C18.8333 10.5333 19.9167 11.2375 20.75 12.3125C21.5833 13.3875 22 14.6167 22 16V23H24V25H8ZM16 28C15.45 28 14.9792 27.8042 14.5875 27.4125C14.1958 27.0208 14 26.55 14 26H18C18 26.55 17.8042 27.0208 17.4125 27.4125C17.0208 27.8042 16.55 28 16 28ZM12 23H20V16C20 14.9 19.6083 13.9583 18.825 13.175C18.0417 12.3917 17.1 12 16 12C14.9 12 13.9583 12.3917 13.175 13.175C12.3917 13.9583 12 14.9 12 16V23Z" fill="#424843"/>
</g>
<g clip-path="url(#clip1_4_283)">
<path d="M65.95 24C66.3 24 66.5958 23.8792 66.8375 23.6375C67.0792 23.3958 67.2 23.1 67.2 22.75C67.2 22.4 67.0792 22.1042 66.8375 21.8625C66.5958 21.6208 66.3 21.5 65.95 21.5C65.6 21.5 65.3042 21.6208 65.0625 21.8625C64.8208 22.1042 64.7 22.4 64.7 22.75C64.7 23.1 64.8208 23.3958 65.0625 23.6375C65.3042 23.8792 65.6 24 65.95 24ZM65.05 20.15H66.9C66.9 19.6 66.9625 19.1667 67.0875 18.85C67.2125 18.5333 67.5667 18.1 68.15 17.55C68.5833 17.1167 68.925 16.7042 69.175 16.3125C69.425 15.9208 69.55 15.45 69.55 14.9C69.55 13.9667 69.2083 13.25 68.525 12.75C67.8417 12.25 67.0333 12 66.1 12C65.15 12 64.3792 12.25 63.7875 12.75C63.1958 13.25 62.7833 13.85 62.55 14.55L64.2 15.2C64.2833 14.9 64.4708 14.575 64.7625 14.225C65.0542 13.875 65.5 13.7 66.1 13.7C66.6333 13.7 67.0333 13.8458 67.3 14.1375C67.5667 14.4292 67.7 14.75 67.7 15.1C67.7 15.4333 67.6 15.7458 67.4 16.0375C67.2 16.3292 66.95 16.6 66.65 16.85C65.9167 17.5 65.4667 17.9917 65.3 18.325C65.1333 18.6583 65.05 19.2667 65.05 20.15ZM66 28C64.6167 28 63.3167 27.7375 62.1 27.2125C60.8833 26.6875 59.825 25.975 58.925 25.075C58.025 24.175 57.3125 23.1167 56.7875 21.9C56.2625 20.6833 56 19.3833 56 18C56 16.6167 56.2625 15.3167 56.7875 14.1C57.3125 12.8833 58.025 11.825 58.925 10.925C59.825 10.025 60.8833 9.3125 62.1 8.7875C63.3167 8.2625 64.6167 8 66 8C67.3833 8 68.6833 8.2625 69.9 8.7875C71.1167 9.3125 72.175 10.025 73.075 10.925C73.975 11.825 74.6875 12.8833 75.2125 14.1C75.7375 15.3167 76 16.6167 76 18C76 19.3833 75.7375 20.6833 75.2125 21.9C74.6875 23.1167 73.975 24.175 73.075 25.075C72.175 25.975 71.1167 26.6875 69.9 27.2125C68.6833 27.7375 67.3833 28 66 28ZM66 26C68.2333 26 70.125 25.225 71.675 23.675C73.225 22.125 74 20.2333 74 18C74 15.7667 73.225 13.875 71.675 12.325C70.125 10.775 68.2333 10 66 10C63.7667 10 61.875 10.775 60.325 12.325C58.775 13.875 58 15.7667 58 18C58 20.2333 58.775 22.125 60.325 23.675C61.875 25.225 63.7667 26 66 26Z" fill="#424843"/>
</g>
<defs>
<clipPath id="clip0_4_283">
<rect width="16" height="20" fill="white" transform="translate(8 8)"/>
</clipPath>
<clipPath id="clip1_4_283">
<rect width="20" height="20" fill="white" transform="translate(56 8)"/>
</clipPath>
</defs>
</svg>
