<svg width="48" height="48" viewBox="0 0 48 48" fill="none" xmlns="http://www.w3.org/2000/svg">
<path d="M0 16C0 7.16344 7.16344 0 16 0H32C40.8366 0 48 7.16344 48 16V32C48 40.8366 40.8366 48 32 48H16C7.16344 48 0 40.8366 0 32V16Z" fill="#C7E8CF" fill-opacity="0.3"/>
<g clip-path="url(#clip0_4_376)">
<path d="M20.25 30.25C17.8125 30.25 15.7448 29.401 14.0469 27.7031C12.349 26.0052 11.5 23.9375 11.5 21.5V14C11.5 13.3125 11.7448 12.724 12.2344 12.2344C12.724 11.7448 13.3125 11.5 14 11.5H29.625C30.8333 11.5 31.8646 11.9271 32.7188 12.7812C33.5729 13.6354 34 14.6667 34 15.875C34 17.0833 33.5729 18.1146 32.7188 18.9688C31.8646 19.8229 30.8333 20.25 29.625 20.25H29V21.5C29 23.9375 28.151 26.0052 26.4531 27.7031C24.7552 29.401 22.6875 30.25 20.25 30.25ZM14 17.75H26.5V14H14V17.75ZM20.25 27.75C21.9792 27.75 23.4531 27.1406 24.6719 25.9219C25.8906 24.7031 26.5 23.2292 26.5 21.5V20.25H14V21.5C14 23.2292 14.6094 24.7031 15.8281 25.9219C17.0469 27.1406 18.5208 27.75 20.25 27.75ZM29 17.75H29.625C30.1458 17.75 30.5885 17.5677 30.9531 17.2031C31.3177 16.8385 31.5 16.3958 31.5 15.875C31.5 15.3542 31.3177 14.9115 30.9531 14.5469C30.5885 14.1823 30.1458 14 29.625 14H29V17.75ZM11.5 34V31.5H31.5V34H11.5Z" fill="#486551"/>
</g>
<defs>
<clipPath id="clip0_4_376">
<rect width="25" height="25" fill="white" transform="translate(11.5 11.5)"/>
</clipPath>
</defs>
</svg>
