<svg width="30" height="30" viewBox="0 0 30 30" fill="none" xmlns="http://www.w3.org/2000/svg">
<g clip-path="url(#clip0_4_340)">
<path d="M8.99998 24L15 19.425L21 24L18.75 16.575L24.7499 12.3H17.4L15 4.49999L12.6 12.3H5.24999L11.25 16.575L8.99998 24ZM15 29.9999C12.925 29.9999 10.975 29.6062 9.14998 28.8187C7.32498 28.0312 5.73749 26.9624 4.38749 25.6124C3.03749 24.2624 1.96875 22.675 1.18125 20.85C0.393749 19.025 0 17.075 0 15C0 12.925 0.393749 10.975 1.18125 9.14998C1.96875 7.32498 3.03749 5.73749 4.38749 4.38749C5.73749 3.03749 7.32498 1.96875 9.14998 1.18125C10.975 0.393749 12.925 0 15 0C17.075 0 19.025 0.393749 20.85 1.18125C22.675 1.96875 24.2624 3.03749 25.6124 4.38749C26.9624 5.73749 28.0312 7.32498 28.8187 9.14998C29.6062 10.975 29.9999 12.925 29.9999 15C29.9999 17.075 29.6062 19.025 28.8187 20.85C28.0312 22.675 26.9624 24.2624 25.6124 25.6124C24.2624 26.9624 22.675 28.0312 20.85 28.8187C19.025 29.6062 17.075 29.9999 15 29.9999Z" fill="white"/>
</g>
<defs>
<clipPath id="clip0_4_340">
<rect width="30" height="30" fill="white"/>
</clipPath>
</defs>
</svg>
