<svg width="48" height="48" viewBox="0 0 48 48" fill="none" xmlns="http://www.w3.org/2000/svg">
<path d="M0 16C0 7.16344 7.16344 0 16 0H32C40.8366 0 48 7.16344 48 16V32C48 40.8366 40.8366 48 32 48H16C7.16344 48 0 40.8366 0 32V16Z" fill="#C7E8CF" fill-opacity="0.3"/>
<g clip-path="url(#clip0_4_390)">
<path d="M14 29C13.3125 29 12.724 28.7552 12.2344 28.2656C11.7448 27.776 11.5 27.1875 11.5 26.5V14C11.5 13.3125 11.7448 12.724 12.2344 12.2344C12.724 11.7448 13.3125 11.5 14 11.5H34C34.6875 11.5 35.276 11.7448 35.7656 12.2344C36.2552 12.724 36.5 13.3125 36.5 14V26.5C36.5 27.1875 36.2552 27.776 35.7656 28.2656C35.276 28.7552 34.6875 29 34 29H14ZM26.5 19H34V14H26.5V19ZM14 26.5H24V14H14V26.5ZM19 22.125C18.4792 22.125 18.0365 21.9427 17.6719 21.5781C17.3073 21.2135 17.125 20.7708 17.125 20.25C17.125 19.7292 17.3073 19.2865 17.6719 18.9219C18.0365 18.5573 18.4792 18.375 19 18.375C19.5208 18.375 19.9635 18.5573 20.3281 18.9219C20.6927 19.2865 20.875 19.7292 20.875 20.25C20.875 20.7708 20.6927 21.2135 20.3281 21.5781C19.9635 21.9427 19.5208 22.125 19 22.125ZM26.5 26.5H34V21.5H26.5V26.5Z" fill="#486551"/>
</g>
<defs>
<clipPath id="clip0_4_390">
<rect width="25" height="25" fill="white" transform="translate(11.5 11.5)"/>
</clipPath>
</defs>
</svg>
