<svg width="21" height="20" viewBox="0 0 21 20" fill="none" xmlns="http://www.w3.org/2000/svg">
<g clip-path="url(#clip0_4_254)">
<path d="M7.29775 20L6.89787 16.8C6.68127 16.7167 6.47717 16.6167 6.28556 16.5C6.09395 16.3833 5.90651 16.2583 5.72323 16.125L2.74915 17.375L0 12.625L2.57421 10.675C2.55754 10.5583 2.54921 10.4458 2.54921 10.3375C2.54921 10.2292 2.54921 10.1167 2.54921 10C2.54921 9.88333 2.54921 9.77083 2.54921 9.6625C2.54921 9.55417 2.55754 9.44167 2.57421 9.325L0 7.375L2.74915 2.625L5.72323 3.875C5.90651 3.74167 6.09812 3.61667 6.29806 3.5C6.49799 3.38333 6.69793 3.28333 6.89787 3.2L7.29775 0H12.7961L13.1959 3.2C13.4126 3.28333 13.6166 3.38333 13.8082 3.5C13.9999 3.61667 14.1873 3.74167 14.3706 3.875L17.3446 2.625L20.0938 7.375L17.5196 9.325C17.5363 9.44167 17.5446 9.55417 17.5446 9.6625C17.5446 9.77083 17.5446 9.88333 17.5446 10C17.5446 10.1167 17.5446 10.2292 17.5446 10.3375C17.5446 10.4458 17.5279 10.5583 17.4946 10.675L20.0688 12.625L17.3197 17.375L14.3706 16.125C14.1873 16.2583 13.9957 16.3833 13.7957 16.5C13.5958 16.6167 13.3959 16.7167 13.1959 16.8L12.7961 20H7.29775ZM9.04721 18H11.0216L11.3715 15.35C11.888 15.2167 12.367 15.0208 12.8085 14.7625C13.2501 14.5042 13.6541 14.1917 14.0207 13.825L16.4949 14.85L17.4696 13.15L15.3203 11.525C15.4035 11.2917 15.4619 11.0458 15.4952 10.7875C15.5285 10.5292 15.5452 10.2667 15.5452 10C15.5452 9.73333 15.5285 9.47083 15.4952 9.2125C15.4619 8.95417 15.4035 8.70833 15.3203 8.475L17.4696 6.85L16.4949 5.15L14.0207 6.2C13.6541 5.81667 13.2501 5.49583 12.8085 5.2375C12.367 4.97917 11.888 4.78333 11.3715 4.65L11.0466 2H9.0722L8.72231 4.65C8.2058 4.78333 7.72679 4.97917 7.28525 5.2375C6.84372 5.49583 6.43968 5.80833 6.07313 6.175L3.59889 5.15L2.62419 6.85L4.77353 8.45C4.69022 8.7 4.6319 8.95 4.59858 9.2C4.56526 9.45 4.5486 9.71667 4.5486 10C4.5486 10.2667 4.56526 10.525 4.59858 10.775C4.6319 11.025 4.69022 11.275 4.77353 11.525L2.62419 13.15L3.59889 14.85L6.07313 13.8C6.43968 14.1833 6.84372 14.5042 7.28525 14.7625C7.72679 15.0208 8.2058 15.2167 8.72231 15.35L9.04721 18ZM10.0969 13.5C11.0633 13.5 11.888 13.1583 12.5711 12.475C13.2542 11.7917 13.5958 10.9667 13.5958 10C13.5958 9.03333 13.2542 8.20833 12.5711 7.525C11.888 6.84167 11.0633 6.5 10.0969 6.5C9.11386 6.5 8.28494 6.84167 7.61015 7.525C6.93536 8.20833 6.59796 9.03333 6.59796 10C6.59796 10.9667 6.93536 11.7917 7.61015 12.475C8.28494 13.1583 9.11386 13.5 10.0969 13.5Z" fill="#424843"/>
</g>
<defs>
<clipPath id="clip0_4_254">
<rect width="20.0938" height="20" fill="white"/>
</clipPath>
</defs>
</svg>
